<?xml version="1.0" encoding="UTF-8"?>
<svg width="44px" height="48px" viewBox="0 0 44 48" version="1.1" xmlns="http://www.w3.org/2000/svg" xmlns:xlink="http://www.w3.org/1999/xlink">
    <!-- Generator: Sketch 46.2 (44496) - http://www.bohemiancoding.com/sketch -->
    <title>Airbnb</title>
    <desc>Created with Sketch.</desc>
    <defs></defs>
    <g id="Social-Icons" stroke="none" stroke-width="1" fill="none" fill-rule="evenodd">
        <g id="Icon--White" transform="translate(-802.000000, -500.000000)" fill-rule="nonzero" fill="#FFFFFF">
            <g id="Line-4" transform="translate(200.000000, 500.000000)">
                <path d="M645.998493,37.0690268 C645.983413,35.6891811 645.684249,34.2803196 645.141127,32.8737352 C644.872368,32.1753211 644.634925,31.6255978 644.097281,30.42603 C644.081573,30.390982 644.081573,30.390982 644.065877,30.3559617 C643.991122,30.1891281 643.991122,30.1891281 643.916811,30.0228634 C640.617715,22.6993953 637.147803,15.4390663 633.508188,8.2418604 C633.416105,8.06098658 633.342743,7.91626051 633.180532,7.59577774 C633.177211,7.58921642 633.177211,7.58921642 633.173889,7.58265454 C632.578459,6.40626084 632.304085,5.87462905 631.947026,5.22080326 C631.293041,4.03214913 630.626574,3.10319586 629.821475,2.34318872 C628.404885,0.967726671 626.487583,0.128211593 624.495664,0.00191008744 L623.628836,0 C621.536503,0.103999982 619.555531,0.977053278 618.098536,2.42341203 C617.335486,3.15944238 616.695544,4.06109932 616.056915,5.22034213 C615.698433,5.8745154 615.403594,6.44496976 614.841452,7.55694042 C614.808254,7.62261366 614.808254,7.62261366 614.775088,7.68822853 C614.646665,7.94227682 614.590794,8.05268421 614.518427,8.19526943 C612.096458,12.9815977 609.732629,17.8343428 607.425427,22.7541864 C605.738066,26.3676785 604.546064,28.9698377 603.399566,31.5694303 C602.691804,33.1815155 602.291038,34.3873006 602.115725,35.6677192 C601.74457,38.1378619 602.274721,40.7437844 603.583422,42.8861266 C604.710387,44.7453181 606.400723,46.237185 608.368038,47.1005695 C609.900907,47.7754789 611.590498,48.0805883 613.253944,47.980597 C615.355886,47.8670059 617.466681,47.1289311 619.422443,45.8945624 C621.212062,44.7760467 622.821019,43.3272812 624.708371,41.2648259 L623.298017,41.2632768 C625.027243,43.1612586 626.528121,44.537787 628.175108,45.6322361 C630.109211,46.9281303 632.183494,47.7410893 634.276072,47.9424195 C636.708874,48.2012481 639.220923,47.5812616 641.253764,46.208149 C643.043364,45.0077894 644.456718,43.2382895 645.250981,41.206346 C645.766651,39.8915933 646.022805,38.4742125 645.998407,37.0629023 L645.998493,37.0690268 L645.998493,37.0690268 Z M641.046474,39.0612906 C640.626307,40.5381456 639.61229,41.8325904 638.296059,42.5741179 C637.136087,43.2348536 635.735085,43.4732222 634.397743,43.2456841 C632.804924,42.9931563 631.238688,42.1700689 629.609046,40.8329874 C628.651533,40.0493921 627.73387,39.1344006 626.625726,37.8960605 L626.668601,39.1275573 C628.493709,36.7767038 629.809465,34.7844755 630.826313,32.7028582 C631.965431,30.3629192 632.607888,28.1779263 632.675665,26.0081301 C632.720959,24.3785204 632.400937,22.8083643 631.706363,21.4601954 C630.768583,19.6026795 629.083716,18.1404578 627.099797,17.4294121 C625.30377,16.7760143 623.301582,16.7134265 621.45471,17.2495998 C619.678896,17.7613089 618.091572,18.8466659 617.006693,20.3173885 C616.061929,21.5860471 615.494992,23.1627309 615.365077,24.8080792 C615.191799,26.8634208 615.617954,29.0018866 616.534667,31.2657274 C617.619534,33.8988296 619.197871,36.415203 621.343606,39.112665 L621.362164,37.8921523 C620.578246,38.8182087 619.705667,39.6993716 618.752439,40.5327297 C617.127621,41.9329885 615.587228,42.8226594 614.004124,43.1713808 C612.612122,43.489527 611.146136,43.3199716 609.926703,42.6917056 C608.473671,41.9542397 607.353593,40.5595054 606.933259,38.9648714 C606.61709,37.8122417 606.670668,36.5346604 607.069693,35.3365468 C607.304452,34.6353526 607.541206,34.0699654 608.098869,32.8260354 C608.122292,32.7737891 608.122292,32.7737891 608.145751,32.7214504 C608.247536,32.4943374 608.31327,32.3469948 608.380669,32.1943995 C611.609922,25.023507 615.02903,17.8668912 618.631619,10.7318268 C618.708164,10.5806323 618.769261,10.4596389 618.906732,10.1871575 C618.91367,10.173406 618.91367,10.173406 618.920607,10.1596564 C619.56409,8.88420254 619.862826,8.30368667 620.243319,7.60523663 C620.753553,6.68089738 621.203039,6.08025698 621.745114,5.66075668 C622.3949,5.14316794 623.210285,4.8658221 624.013801,4.88437956 C624.873116,4.87463578 625.713188,5.1864046 626.363085,5.74250349 C626.943193,6.23311989 627.386985,6.88022402 627.9801,8.00773604 C628.832821,9.63891315 629.574904,11.1107331 630.934266,13.845259 C631.055671,14.0894981 631.055671,14.0894981 631.177091,14.333797 C631.190499,14.360774 631.190499,14.360774 631.203908,14.3877515 C634.250093,20.5299861 637.161555,26.6964674 639.936083,32.8860766 C639.973764,32.9725819 640.003051,33.0392591 640.073785,33.1998154 C640.099792,33.2587918 640.099792,33.2587918 640.125728,33.3175833 C640.647291,34.499894 640.861166,35.0369117 641.046465,35.702678 C641.351466,36.8088857 641.353721,37.9893161 641.046992,39.059477 L641.046474,39.0612906 L641.046474,39.0612906 Z M624.746611,35.5898481 C624.346307,35.1099192 624.022588,34.6630318 623.397043,33.7526239 C623.355891,33.6927231 623.355891,33.6927231 623.314633,33.6326608 C623.29058,33.5976511 623.29058,33.5976511 623.266485,33.5625924 C622.409959,32.2830397 621.715505,31.0571612 621.172416,29.8320989 C620.65535,28.6510262 620.330028,27.5844492 620.200188,26.5525597 C620.089668,25.5971123 620.150809,24.774909 620.4114,24.0885431 C620.658481,23.4068198 621.128197,22.818151 621.726391,22.429972 C623.222154,21.4469047 625.35556,21.5734055 626.67216,22.7318065 C627.301368,23.2777197 627.714597,24.1150138 627.818893,25.0297115 C627.950194,26.1992085 627.731141,27.4742006 627.204422,28.9069883 C626.395355,31.069888 625.139508,33.1454723 623.253147,35.6232131 L624.013176,36.2060643 L624.746611,35.5898481 L624.746611,35.5898481 Z" id="Airbnb"></path>
            </g>
        </g>
    </g>
</svg>