<?xml version="1.0" encoding="UTF-8"?>
<svg width="48px" height="34px" viewBox="0 0 48 34" version="1.1" xmlns="http://www.w3.org/2000/svg" xmlns:xlink="http://www.w3.org/1999/xlink">
    <!-- Generator: Sketch 46.2 (44496) - http://www.bohemiancoding.com/sketch -->
    <title>Blackberry</title>
    <desc>Created with Sketch.</desc>
    <defs></defs>
    <g id="Social-Icons" stroke="none" stroke-width="1" fill="none" fill-rule="evenodd">
        <g id="Icon--White" transform="translate(-500.000000, -607.000000)" fill="#FFFFFF">
            <g id="Line-5" transform="translate(204.000000, 600.000000)">
                <path d="M311.466667,10.6305879 L311.466667,10.6305879 C311.466667,12.904776 310.002837,15.3513663 304.862411,15.3513663 L298.278329,15.3513663 L300.073759,7 L306.389283,7 C310.49078,7 311.466667,9.02826141 311.466667,10.6305879 Z M328.479117,10.6305879 L328.479117,10.6305879 C328.479117,12.904776 327.017809,15.3513663 321.874862,15.3500987 L315.294563,15.3500987 L317.088731,7 L323.405516,7 C327.505753,7 328.479117,9.02826141 328.479117,10.6305879 Z M309.188337,23.1994703 C309.188337,25.4673201 307.723247,27.9202488 302.58156,27.9202488 L296,27.9202488 L297.795429,19.5638118 L304.110954,19.5638118 C308.212451,19.5638118 309.188337,21.5971438 309.188337,23.1994703 Z M326.200788,23.1994703 C326.200788,25.4673201 324.73948,27.9202488 319.596533,27.9202488 L313.012451,27.9202488 L314.810402,19.5638118 L321.125926,19.5638118 C325.223641,19.5638118 326.200788,21.5971438 326.200788,23.1994703 Z M344,18.1021959 L344,18.1021959 C344,20.3751163 342.53617,22.8217066 337.393223,22.8217066 L330.811663,22.8217066 L332.609614,14.4665373 L338.925138,14.4665373 C343.022853,14.4665373 344,16.4986017 344,18.1021959 Z M341.546414,31.1882849 C341.546414,33.4561347 340.083846,35.9090634 334.942159,35.9090634 L328.360599,35.9090634 L330.156028,27.557697 L336.471552,27.557697 C340.571789,27.557697 341.546414,29.5846908 341.546414,31.1882849 Z M323.756028,36.2868271 L323.756028,36.2868271 C323.756028,38.5546768 322.29472,41.0012672 317.151773,40.9999995 L310.570213,40.9999995 L312.365642,32.6448302 L318.684949,32.6448302 C322.782664,32.6448302 323.756028,34.6768946 323.756028,36.2868271 Z" id="Blackberry"></path>
            </g>
        </g>
    </g>
</svg>