<?xml version="1.0" encoding="UTF-8"?>
<svg width="48px" height="49px" viewBox="0 0 48 49" version="1.1" xmlns="http://www.w3.org/2000/svg" xmlns:xlink="http://www.w3.org/1999/xlink">
    <!-- Generator: Sketch 46.2 (44496) - http://www.bohemiancoding.com/sketch -->
    <title>Google</title>
    <desc>Created with Sketch.</desc>
    <defs></defs>
    <g id="Social-Icons" stroke="none" stroke-width="1" fill="none" fill-rule="evenodd">
        <g id="Icon--White" transform="translate(-400.000000, -899.000000)" fill="#FFFFFF">
            <g id="Line-8" transform="translate(205.000000, 899.000000)">
                <path d="M219.337382,19.6485149 L219.337382,29.3514851 C219.337382,29.3514851 228.687756,29.3388713 232.49499,29.3388713 C230.4333,35.6290644 227.227513,39.0544554 219.337382,39.0544554 C211.352552,39.0544554 205.120495,32.5381832 205.120495,24.5 C205.120495,16.4618168 211.352552,9.94554455 219.337382,9.94554455 C223.559074,9.94554455 226.285584,11.4393168 228.786551,13.5213317 C230.788481,11.5060248 230.621252,11.2188168 235.714512,6.37679208 C231.390892,2.41506931 225.644378,0 219.337382,0 C205.896159,0 195,10.9689653 195,24.5 C195,38.0307921 205.896159,49 219.337382,49 C239.428252,49 244.338861,31.3891089 242.710907,19.6485149 L219.337382,19.6485149 L219.337382,19.6485149 Z" id="Google"></path>
            </g>
        </g>
    </g>
</svg>