<?xml version="1.0" encoding="UTF-8"?>
<svg width="41px" height="48px" viewBox="0 0 41 48" version="1.1" xmlns="http://www.w3.org/2000/svg" xmlns:xlink="http://www.w3.org/1999/xlink">
    <!-- Generator: Sketch 46.2 (44496) - http://www.bohemiancoding.com/sketch -->
    <title>Paypal</title>
    <desc>Created with Sketch.</desc>
    <defs></defs>
    <g id="Social-Icons" stroke="none" stroke-width="1" fill="none" fill-rule="evenodd">
        <g id="Icon--White" transform="translate(-804.000000, -700.000000)" fill="#FFFFFF">
            <g id="Line-6" transform="translate(203.000000, 700.000000)">
                <path d="M635.91167,3.61944345 C637.946827,5.92040749 638.513828,8.45686786 637.951363,12.1948095 C637.951363,12.1948095 637.856106,12.7693005 637.797138,13.0692958 C635.814901,23.170138 629.030541,26.6620834 620.363735,26.6620834 L615.95322,26.6620834 C614.894818,26.6620834 613.999712,27.4270715 613.833391,28.4635553 L613.905967,28.0045624 L611.574458,42.6743332 L602.292267,42.6743332 C601.498465,42.6743332 600.892151,41.9708442 601.016136,41.1938563 L607.277343,1.80147185 C607.443663,0.764988047 608.344818,0 609.404732,0 L624.440097,0 C629.621734,0 633.67088,1.08598303 635.91167,3.61944345 Z M640.301017,14.1080296 C642.021677,16.257496 642.35583,19.2304495 641.660308,22.7763941 C639.92604,31.6112561 633.989913,34.6667083 626.410238,34.6667083 L625.238435,34.6667083 C624.313089,34.6667083 623.523823,35.3356979 623.380183,36.2431837 L623.284927,36.7546757 L621.809211,46.0275308 L621.733611,46.4235246 C621.588458,47.3310105 620.800704,48 619.873846,48 L613.458414,48 L616.408334,29.3162919 L620.363735,29.3162919 C631.27133,29.3162919 638.144899,24.0528742 640.301017,14.1080296 Z" id="Paypal"></path>
            </g>
        </g>
    </g>
</svg>