<?xml version="1.0" encoding="UTF-8"?>
<svg width="37px" height="48px" viewBox="0 0 37 48" version="1.1" xmlns="http://www.w3.org/2000/svg" xmlns:xlink="http://www.w3.org/1999/xlink">
    <!-- Generator: Sketch 46.2 (44496) - http://www.bohemiancoding.com/sketch -->
    <title>Periscope</title>
    <desc>Created with Sketch.</desc>
    <defs></defs>
    <g id="Social-Icons" stroke="none" stroke-width="1" fill="none" fill-rule="evenodd">
        <g id="Icon--White" transform="translate(-205.000000, -901.000000)" fill="#FFFFFF">
            <g id="Line-8" transform="translate(205.000000, 899.000000)">
                <path d="M37,20.7447086 C37,34.683014 22.2062545,50 18.5001629,50 C14.794397,50 0,34.683014 0,20.7447086 C0,10.392227 8.28259511,2 18.5001629,2 C28.7180564,2 37,10.392227 37,20.7447086 Z M18.5001629,9.4333888 C17.6105315,9.4333888 16.7463089,9.54131998 15.916616,9.73968891 C17.421269,10.4872856 18.4597695,12.0494822 18.4597695,13.8618679 C18.4597695,16.3987458 16.4300027,18.4553794 13.9262654,18.4553794 C11.5160191,18.4553794 9.55042568,16.547935 9.40676862,14.142423 C8.06727239,16.0155405 7.27536691,18.3167522 7.27536691,20.8067608 C7.27536691,27.0882236 12.300758,32.1801329 18.5001629,32.1801329 C24.6995677,32.1801329 29.7249588,27.0882236 29.7249588,20.8067608 C29.7249588,14.5252981 24.6995677,9.4333888 18.5001629,9.4333888 Z" id="Periscope"></path>
            </g>
        </g>
    </g>
</svg>