<?xml version="1.0" encoding="UTF-8"?>
<svg width="48px" height="47px" viewBox="0 0 48 47" version="1.1" xmlns="http://www.w3.org/2000/svg" xmlns:xlink="http://www.w3.org/1999/xlink">
    <!-- Generator: Sketch 46.2 (44496) - http://www.bohemiancoding.com/sketch -->
    <title>Photoshop</title>
    <desc>Created with Sketch.</desc>
    <defs></defs>
    <g id="Social-Icons" stroke="none" stroke-width="1" fill="none" fill-rule="evenodd">
        <g id="Icon--White" transform="translate(-600.000000, -901.000000)" fill="#FFFFFF">
            <g id="Line-8" transform="translate(205.000000, 899.000000)">
                <path d="M395,2 L443,2 L443,49 L395,49 L395,2 L395,2 Z M428.119995,20.8878563 C426.396328,20.8878563 425.807317,21.7663303 425.807317,22.4910869 C425.807317,23.2817224 426.199991,23.8308019 428.512757,25.0387591 C431.938187,26.7079572 433.007308,28.3111878 433.007308,30.6612232 C433.007308,34.175208 430.345499,36.0640025 426.74546,36.0640025 C424.847271,36.0640025 423.210866,35.6686404 422.272723,35.1196495 C422.120017,35.0537706 422.098201,34.9439724 422.098201,34.7682068 L422.098201,31.5396973 C422.098201,31.3201009 422.207278,31.2541334 422.360072,31.3640202 C423.734607,32.2645424 425.305479,32.6598159 426.74546,32.6598159 C428.469126,32.6598159 429.189117,31.9350593 429.189117,30.9466985 C429.189117,30.156063 428.687278,29.4532661 426.483589,28.3111878 C423.385388,26.8177554 422.098201,25.3023633 422.098201,22.7766507 C422.098201,19.9434147 424.301891,17.5934679 428.119995,17.5934679 C429.996368,17.5934679 431.305457,17.8790317 432.025447,18.2084263 C432.199969,18.3182245 432.2436,18.4939016 432.2436,18.647619 L432.2436,21.6564436 C432.2436,21.8321207 432.134524,21.9420074 431.916283,21.87604 C430.956326,21.2612586 429.53816,20.8878563 428.119995,20.8878563 L428.119995,20.8878563 L428.119995,20.8878563 Z M409.356352,23.5014073 C409.85819,23.5453266 410.250952,23.5453266 411.123649,23.5453266 C413.67647,23.5453266 416.076408,22.6448929 416.076408,19.1528678 C416.076408,16.3636396 414.352742,14.9579572 411.450965,14.9579572 C410.578268,14.9579572 409.749114,15.0018764 409.356352,15.0238361 L409.356352,23.5014073 L409.356352,23.5014073 Z M405.472802,11.8392459 C405.472802,11.6855284 405.778304,11.5756417 405.952737,11.5756417 C407.349176,11.5097628 409.421886,11.4658435 411.581857,11.4658435 C417.625465,11.4658435 419.981773,14.8041512 419.981773,19.0649407 C419.981773,24.643397 415.967244,27.0373517 411.036388,27.0373517 C410.207322,27.0373517 409.923724,26.9934325 409.334537,26.9934325 L409.334537,35.4270844 C409.334537,35.6027615 409.269091,35.6906001 409.072754,35.6906001 L405.734585,35.6906001 C405.560063,35.6906001 405.472714,35.6247212 405.472714,35.4270844 L405.472714,11.8392459 L405.472802,11.8392459 Z" id="Photoshop"></path>
            </g>
        </g>
    </g>
</svg>