<?xml version="1.0" encoding="UTF-8"?>
<svg width="48px" height="48px" viewBox="0 0 48 48" version="1.1" xmlns="http://www.w3.org/2000/svg" xmlns:xlink="http://www.w3.org/1999/xlink">
    <!-- Generator: Sketch 46.2 (44496) - http://www.bohemiancoding.com/sketch -->
    <title>Scoopit</title>
    <desc>Created with Sketch.</desc>
    <defs></defs>
    <g id="Social-Icons" stroke="none" stroke-width="1" fill="none" fill-rule="evenodd">
        <g id="Icon--White" transform="translate(-800.000000, -900.000000)" fill="#FFFFFF">
            <g id="Line-8" transform="translate(205.000000, 899.000000)">
                <path d="M595,49 L595,1 L643,1 L643,49 L595,49 Z M626.356406,15.4770241 L627.20364,32.1422319 C628.441231,32.1177243 630.489297,32.1247265 631.726888,32.1369803 L632.56537,15.4175055 L632.581124,8.70765864 L626.352905,8.70765864 L626.356406,15.4770241 Z M620.891397,8.71291028 L614.684184,8.70940919 L614.692936,16.9054705 L605.408373,16.9037199 L605.422377,28.9562363 L605.424127,41.0227571 L611.587579,41.0227571 L611.570074,21.1575492 L614.680683,21.1557987 L614.673681,35.4157549 C614.673681,36.1352298 614.717443,36.852954 614.810218,37.5671772 C615.067539,39.6188184 615.944532,40.6778993 617.850808,41.0560175 C619.951388,41.4726477 622.347799,41.2573304 624.455381,41.0315098 L624.464133,36.7864333 C624.322344,36.7899344 623.047992,36.7899344 622.907954,36.7864333 C621.540826,36.7391685 620.910652,36.161488 620.90365,34.7925602 L620.886146,21.1540481 L624.462383,21.1557987 L624.464133,16.9247265 L620.882645,16.9229759 L620.891397,8.71291028 Z M611.547318,8.71291028 C609.791583,8.7321663 607.197367,8.72866521 605.443383,8.71291028 L605.43288,14.0258206 L611.542066,14.0258206 L611.547318,8.71291028 Z M626.358156,35.0551422 L626.358156,41.0140044 L632.556617,41.0140044 L632.556617,35.0551422 L626.358156,35.0551422 Z" id="Scoopit"></path>
            </g>
        </g>
    </g>
</svg>