<?xml version="1.0" encoding="UTF-8"?>
<svg width="42px" height="48px" viewBox="0 0 42 48" version="1.1" xmlns="http://www.w3.org/2000/svg" xmlns:xlink="http://www.w3.org/1999/xlink">
    <!-- Generator: Sketch 46.2 (44496) - http://www.bohemiancoding.com/sketch -->
    <title>Shopify</title>
    <desc>Created with Sketch.</desc>
    <defs></defs>
    <g id="Social-Icons" stroke="none" stroke-width="1" fill="none" fill-rule="evenodd">
        <g id="Icon--White" transform="translate(-203.000000, -700.000000)" fill="#FFFFFF">
            <g id="Line-6" transform="translate(203.000000, 700.000000)">
                <path d="M36.7863819,9.3465 C36.8192189,9.588 42,44.7915 42,44.7915 L27.239774,48 L0,42.8715 C0,42.8715 3.49564661,15.702 3.62848715,14.7435 C3.80312022,13.479 3.84491275,13.437 5.18227371,13.0155 C5.39869931,12.9465 7.09875973,12.417 9.49287466,11.6715 C10.4152955,7.74 13.3586837,0 19.5186041,0 C20.3231103,0 21.2544867,0.435 22.0067522,1.434 C22.0813817,1.4295 22.1575038,1.4265 22.2306407,1.4265 C24.8740183,1.4265 26.3770568,3.69 27.2293258,6.153 C28.099506,5.883 28.6248978,5.7195 28.6562422,5.7105 C28.8681901,5.6475 29.4144781,5.562 29.6950851,5.844 C29.9741995,6.1245 32.5250364,8.6685 32.5250364,8.6685 C32.5250364,8.6685 36.1953161,8.9415 36.3684566,8.9565 C36.5430897,8.9715 36.7535449,9.105 36.7863819,9.3465 Z M21.8052525,7.572 C21.8052525,5.7255 21.5574825,4.356 21.1798571,3.402 C19.6768187,4.05 17.9588472,5.7675 17.0423967,9.3225 C18.6752905,8.814 20.3037066,8.307 21.8037599,7.8405 C21.8037599,7.7535 21.8052525,7.6665 21.8052525,7.572 Z M19.3484488,1.6605 C14.924411,1.6605 12.439248,7.4985 11.3929422,11.0805 C12.5735812,10.713 13.8497459,10.3155 15.1557625,9.909 C16.0498241,5.214 18.1648246,2.862 20.1395217,1.929 C19.8827961,1.752 19.6156224,1.6605 19.3484488,1.6605 Z M20.4096805,22.593 L22.2306407,17.1525 C22.2306407,17.1525 20.9992537,16.4355 18.509613,16.4355 C12.0466968,16.4355 8.84509044,20.7735 8.84509044,25.2555 C8.84509044,30.582 14.1333381,30.7275 14.1333381,33.969 C14.1333381,34.752 13.5810796,35.8245 12.2273002,35.8245 C10.1525996,35.8245 7.69430328,33.7035 7.69430328,33.7035 L6.44201997,37.86 C6.44201997,37.86 8.83314972,40.785 13.5094353,40.785 C17.4065887,40.785 20.2962436,37.836 20.2962436,33.258 C20.2962436,27.438 13.8512385,26.4855 13.8512385,24 C13.8512385,23.5455 13.9960198,21.738 16.8617932,21.738 C18.815594,21.738 20.4096805,22.593 20.4096805,22.593 Z M23.4187427,7.338 C24.2620562,7.0755 25.0396958,6.834 25.7233022,6.621 C25.1396993,4.8285 24.2322044,3.27 22.8694694,3.099 C23.2082874,4.0755 23.4202353,5.3085 23.4202353,6.8385 C23.4202353,7.014 23.4187427,7.1745 23.4187427,7.338 Z" id="Shopify"></path>
            </g>
        </g>
    </g>
</svg>