<?xml version="1.0" encoding="UTF-8"?>
<svg width="53px" height="47px" viewBox="0 0 53 47" version="1.1" xmlns="http://www.w3.org/2000/svg" xmlns:xlink="http://www.w3.org/1999/xlink">
    <!-- Generator: Sketch 46.2 (44496) - http://www.bohemiancoding.com/sketch -->
    <title>Sketch</title>
    <desc>Created with Sketch.</desc>
    <defs></defs>
    <g id="Social-Icons" stroke="none" stroke-width="1" fill="none" fill-rule="evenodd">
        <g id="Icon--White" transform="translate(-697.000000, -900.000000)" fill="#FFFFFF">
            <g id="Line-8" transform="translate(205.000000, 899.000000)">
                <path d="M544.087143,12.043 L536.105143,5.996 C535.926143,5.808 535.724143,5.654 535.502143,5.54 L530.125143,1.466 C529.725143,1.164 529.238143,1 528.737143,1 L508.263143,1 C507.762143,1 507.274143,1.164 506.875143,1.466 L492.912143,12.043 C491.897143,12.812 491.699143,14.26 492.470143,15.274 L516.669143,47.092 C517.590143,48.303 519.409143,48.303 520.330143,47.092 L544.530143,15.274 C545.301143,14.26 545.102143,12.812 544.087143,12.043 L544.087143,12.043 Z M509.035143,5.606 L527.965143,5.606 L530.572143,7.581 L527.198143,10.079 L510.720143,9.949 L506.559143,7.481 L509.035143,5.606 L509.035143,5.606 Z M511.297143,14.559 L526.762143,14.682 L531.105143,20.731 L507.133143,20.731 L511.297143,14.559 L511.297143,14.559 Z M502.596143,10.483 L506.809143,12.982 L501.968143,20.159 L497.528143,14.322 L502.596143,10.483 L502.596143,10.483 Z M518.500143,41.896 L505.906143,25.337 L531.094143,25.337 L518.500143,41.896 L518.500143,41.896 Z M535.715143,19.261 L531.140143,12.889 L534.396143,10.477 L539.471143,14.322 L535.715143,19.261 L535.715143,19.261 Z" id="Sketch"></path>
            </g>
        </g>
    </g>
</svg>