<?xml version="1.0" encoding="UTF-8"?>
<svg width="48px" height="48px" viewBox="0 0 48 48" version="1.1" xmlns="http://www.w3.org/2000/svg" xmlns:xlink="http://www.w3.org/1999/xlink">
    <!-- Generator: Sketch 46.2 (44496) - http://www.bohemiancoding.com/sketch -->
    <title>Skype</title>
    <desc>Created with Sketch.</desc>
    <defs></defs>
    <g id="Social-Icons" stroke="none" stroke-width="1" fill="none" fill-rule="evenodd">
        <g id="Icon--White" transform="translate(-400.000000, -700.000000)" fill="#FFFFFF">
            <g id="Line-6" transform="translate(203.000000, 700.000000)">
                <path d="M243.619944,29.0954617 C244.503293,30.8482003 245,32.8207268 245,34.9101026 C245,42.1380629 239.056444,48 231.724365,48 C229.452493,48 227.318909,47.4352287 225.447789,46.4447922 C224.087488,46.6924013 222.687676,46.8231612 221.253998,46.8231612 C208.610536,46.8231612 198.360301,36.7184837 198.360301,24.2490002 C198.360301,22.6965745 198.521167,21.1775343 198.823142,19.7141367 C197.66604,17.7666493 197,15.5075639 197,13.0926795 C197,5.85915493 202.943556,0 210.278457,0 C212.87206,0 215.293509,0.737263085 217.339605,2.00869414 C218.61524,1.7916884 219.921919,1.67762128 221.253998,1.67762128 C233.900282,1.67762128 244.147695,11.7850809 244.147695,24.2490002 C244.147695,25.9127108 243.967074,27.5319075 243.619944,29.0954617 Z M232.997178,35.0380803 C234.058325,33.5552078 234.600188,31.8608938 234.600188,30.0024344 C234.600188,28.4472266 234.286924,27.1118066 233.668862,26.0239958 C233.0508,24.9445314 232.184384,24.0431229 231.08937,23.3392453 C230.011289,22.6464963 228.696143,22.0566858 227.169332,21.5781603 C225.665099,21.102417 223.963311,20.6600591 222.109125,20.2705616 C220.644403,19.9367067 219.577611,19.677969 218.942615,19.5026952 C218.321731,19.3357677 217.700847,19.096505 217.099718,18.7988176 C216.518344,18.5094766 216.058325,18.1700574 215.736595,17.7749957 C215.426152,17.4077552 215.276576,16.9765258 215.276576,16.4646148 C215.276576,15.6244131 215.742239,14.9149713 216.696143,14.3001217 C217.686736,13.6574509 219.024459,13.3347244 220.661336,13.3347244 C222.430856,13.3347244 223.714958,13.6240654 224.485419,14.2027473 C225.278457,14.7981221 225.969897,15.6411059 226.539981,16.7094418 C227.033866,17.5440793 227.479774,18.1283255 227.908749,18.5039124 C228.365945,18.9045383 229.031985,19.1104156 229.878645,19.1104156 C230.809972,19.1104156 231.60301,18.784907 232.229539,18.139454 C232.853246,17.5023474 233.169332,16.7678665 233.169332,15.9610503 C233.169332,15.1236307 232.926623,14.2583898 232.452493,13.3875848 C231.984008,12.5251261 231.233302,11.698835 230.225776,10.91984 C229.226717,10.1491914 227.956726,9.52599548 226.446849,9.06416275 C224.945437,8.60233003 223.147695,8.36863154 221.104421,8.36863154 C218.544685,8.36863154 216.286924,8.71917927 214.387582,9.41192836 C212.460019,10.1102417 210.964252,11.1396279 209.942615,12.4555729 C208.90969,13.7798644 208.387582,15.3183794 208.387582,17.0210398 C208.387582,18.8099461 208.887112,20.3317684 209.869238,21.5475569 C210.837253,22.7410885 212.160865,23.6953573 213.803387,24.3825422 C215.406397,25.0585985 217.424271,25.6511911 219.803387,26.1519736 C221.550329,26.5136498 222.96143,26.8614154 224.002822,27.1785776 C224.999059,27.4901756 225.82032,27.9353156 226.446849,28.5084333 C227.039511,29.059294 227.330198,29.7603895 227.330198,30.6478873 C227.330198,31.77743 226.777046,32.7010955 225.634055,33.4661798 C224.468485,34.250739 222.916275,34.651365 221.022578,34.651365 C219.648166,34.651365 218.527752,34.451052 217.698024,34.0671188 C216.873942,33.6804034 216.227658,33.1879673 215.776105,32.5981568 C215.310442,31.9944358 214.870179,31.221005 214.463782,30.3029038 C214.099718,29.4654843 213.648166,28.8116849 213.120414,28.3693271 C212.570085,27.9102765 211.889934,27.6793601 211.105362,27.6793601 C210.145814,27.6793601 209.341486,27.9714832 208.714958,28.5557294 C208.082785,29.1427578 207.761054,29.860546 207.761054,30.6840549 C207.761054,32.0111285 208.252117,33.382716 209.225776,34.76265 C210.188147,36.1370196 211.455315,37.2443053 212.993415,38.06225 C215.146754,39.1890106 217.904045,39.7593462 221.19191,39.7593462 C223.932267,39.7593462 226.336783,39.3392453 228.343368,38.5157364 C230.375353,37.6866632 231.938852,36.5181708 232.997178,35.0380803 Z" id="Skype"></path>
            </g>
        </g>
    </g>
</svg>