<?xml version="1.0" encoding="UTF-8"?>
<svg width="48px" height="48px" viewBox="0 0 48 48" version="1.1" xmlns="http://www.w3.org/2000/svg" xmlns:xlink="http://www.w3.org/1999/xlink">
    <!-- Generator: Sketch 46.2 (44496) - http://www.bohemiancoding.com/sketch -->
    <title>Wordpress</title>
    <desc>Created with Sketch.</desc>
    <defs></defs>
    <g id="Social-Icons" stroke="none" stroke-width="1" fill="none" fill-rule="evenodd">
        <g id="Icon--White" transform="translate(-400.000000, -800.000000)" fill="#FFFFFF">
            <g id="Line-7" transform="translate(200.000000, 800.000000)">
                <path d="M200,23.99925 C200,20.5191412 200.747023,17.216038 202.077565,14.2324448 L213.525923,45.598425 C205.520173,41.7088034 200,33.4990468 200,23.99925 Z M240.201556,22.7887121 C240.201556,24.8422763 239.411032,27.2258508 238.375999,30.5469546 L235.980424,38.5452045 L227.307153,12.7473984 C228.751698,12.670896 230.053739,12.5178912 230.053739,12.5178912 C231.34678,12.3663864 231.195275,10.464327 229.900734,10.5408294 C229.900734,10.5408294 226.014113,10.8453389 223.504535,10.8453389 C221.146461,10.8453389 217.183337,10.5408294 217.183337,10.5408294 C215.888797,10.464327 215.737292,12.4413888 217.030332,12.5178912 C217.030332,12.5178912 218.25587,12.670896 219.548911,12.7473984 L223.287028,22.9912185 L218.033864,38.7432107 L209.29459,12.7473984 C210.740636,12.670896 212.041176,12.5178912 212.041176,12.5178912 C213.334217,12.3663864 213.181212,10.464327 211.888172,10.5408294 C211.888172,10.5408294 208.00155,10.8453389 205.491972,10.8453389 C205.041958,10.8453389 204.510941,10.8348386 203.946923,10.816838 C208.238557,4.30213444 215.614288,0 223.99955,0 C230.247245,0 235.936923,2.38807463 240.206056,6.30019688 C240.102553,6.29419669 240.00205,6.28069627 239.895547,6.28069627 C237.537473,6.28069627 235.864921,8.33426045 235.864921,10.5408294 C235.864921,12.5178912 237.006456,14.1919435 238.222994,16.1705053 C239.135023,17.7680553 240.201556,19.8216194 240.201556,22.7887121 Z M245.059908,12.4853402 C246.933467,15.903947 248,19.8265696 248,23.9997 C248,32.8529767 243.20135,40.5842183 236.065627,44.7438482 L243.396356,23.5496859 C244.765899,20.1250789 245.221913,17.3874934 245.221913,14.9529173 C245.221913,14.0693897 245.163411,13.2503641 245.059908,12.4853402 Z M224.421063,26.0987156 L231.798294,46.3103472 C231.846295,46.4288509 231.906297,46.5368543 231.969299,46.6403575 C229.474721,47.5178849 226.794137,48.0009 223.99955,48.0009 C221.644476,48.0009 219.370405,47.6558892 217.219338,47.0228695 L224.421063,26.0987156 Z" id="Wordpress"></path>
            </g>
        </g>
    </g>
</svg>