<?xml version="1.0" encoding="UTF-8"?>
<svg width="36px" height="48px" viewBox="0 0 36 48" version="1.1" xmlns="http://www.w3.org/2000/svg" xmlns:xlink="http://www.w3.org/1999/xlink">
    <!-- Generator: Sketch 46.2 (44496) - http://www.bohemiancoding.com/sketch -->
    <title>Yelp</title>
    <desc>Created with Sketch.</desc>
    <defs></defs>
    <g id="Social-Icons" stroke="none" stroke-width="1" fill="none" fill-rule="evenodd">
        <g id="Icon--White" transform="translate(-306.000000, -800.000000)" fill="#FFFFFF">
            <g id="Line-7" transform="translate(200.000000, 800.000000)">
                <path d="M106.916951,23.1085217 C107.277888,22.5310279 107.803435,22.2310311 108.390901,22.2535308 C108.776001,22.2580308 109.117305,22.3840294 116.737748,25.5774955 C116.743788,25.5774955 118.963775,26.4984857 118.963775,26.4984857 C119.768709,26.8044825 120.258012,27.6549734 120.208175,28.6149632 C120.155318,29.5539533 119.62675,30.2889455 118.841449,30.4899433 C118.827857,30.4974432 115.676081,31.5174324 115.676081,31.5174324 C108.584206,33.8349078 108.350126,33.9009071 107.972577,33.8799073 C107.383601,33.8604075 106.867115,33.5064113 106.560545,32.9139176 C106.338546,32.4849221 106.184506,31.7664298 106.090874,30.9039389 C105.82659,28.2924667 106.149772,24.3580085 106.916951,23.1085217 Z M123.965238,46.9038189 C123.759851,47.4678129 123.28263,47.8443089 122.622675,47.9673076 C120.72738,48.2958041 114.789294,46.0758277 113.552445,44.5788436 C113.301752,44.2698469 113.153753,43.9338505 113.122039,43.5978541 C113.093346,43.3623566 113.12657,43.128359 113.2051,42.9033614 C113.336487,42.5253655 113.555465,42.2313686 118.897024,35.8609363 C118.903065,35.8609363 120.457055,33.9859562 120.457055,33.9859562 C120.988644,33.3109633 121.935536,33.0979656 122.81598,33.441462 C123.67377,33.7789584 124.193277,34.5244505 124.143441,35.3419418 C124.141931,35.3779414 124.123808,38.7214059 124.123808,38.7214059 C124.102665,46.2918254 124.089074,46.5423228 123.965238,46.9038189 Z M136.006625,44.2695469 C135.385935,44.5245442 134.790918,44.4630449 134.322758,44.0880488 C134.019208,43.8480514 133.699047,43.3575566 129.490134,36.4141304 L128.238183,34.3456524 C127.759451,33.6031602 127.853083,32.6266706 128.45112,31.8841785 C129.028015,31.1566862 129.888826,30.8851891 130.639393,31.180686 C130.680168,31.2001858 133.788149,32.2441747 133.788149,32.2441747 C140.873983,34.6066496 141.106553,34.6966486 141.405571,34.9261462 C141.86467,35.2966423 142.071567,35.8801361 141.977935,36.5551289 C141.703079,38.4976082 137.796206,43.5450546 136.006625,44.2695469 Z M132.347423,26.3978368 C131.054696,26.7098335 130.343394,26.8853316 129.946213,27.03983 C129.955274,27.0278301 129.988499,26.9708307 129.988499,26.9708307 C129.183565,27.1973283 128.304631,26.8043325 127.785124,25.9973411 C127.28525,25.2173493 127.289781,24.305359 127.804757,23.6723658 C127.82741,23.646866 129.777071,20.9483947 129.777071,20.9483947 C134.088677,14.9574583 134.319737,14.6469616 134.630837,14.4399638 C135.129202,14.0994675 135.7363,14.0784677 136.340378,14.3739645 C138.046898,15.2214555 141.514305,20.4504 141.721202,22.4573787 C141.724222,22.4828784 141.721202,22.5038782 141.721202,22.5263779 C141.761977,23.2073707 141.517326,23.7668647 141.031043,24.0983612 C140.712392,24.309859 140.401292,24.4163578 132.347423,26.3978368 Z M124.258669,19.6407086 C124.391566,22.4066792 123.224185,22.7741753 122.842106,22.895674 C122.458516,23.0171727 121.285095,23.3846688 119.844369,21.013194 C119.844369,21.013194 110.105123,5.44935936 109.877084,4.96936446 C109.736636,4.43087018 109.911818,3.81887668 110.378468,3.32388194 C111.835806,1.79689817 119.69335,-0.442578041 121.747215,0.0764164449 C122.419251,0.248914612 122.882881,0.682410007 123.049003,1.28690358 C123.162267,1.95739646 124.121241,16.399243 124.258669,19.6407086 Z" id="Yelp"></path>
            </g>
        </g>
    </g>
</svg>